<svg width="129" height="44" viewBox="0 0 129 44" fill="none" xmlns="http://www.w3.org/2000/svg">
<g clip-path="url(#clip0)">
<path d="M27.8249 23.9262C27.8249 26.6249 26.8902 28.7564 25.021 30.3209C23.1517 31.8853 20.4938 32.736 17.0473 32.8729V35.0436H13.5424V32.8729C10.0959 32.6969 7.42827 31.8364 5.53952 30.2916C3.67024 28.7467 2.7356 26.6249 2.7356 23.9262C2.7356 21.2276 3.67024 19.1058 5.53952 17.5609C7.42827 15.9964 10.0959 15.1262 13.5424 14.9502V12.8676H17.0473V14.9502C20.4938 15.1262 23.1517 15.9964 25.021 17.5609C26.8902 19.1058 27.8249 21.2276 27.8249 23.9262ZM17.0473 29.8809C19.3839 29.7049 21.1558 29.1182 22.3631 28.1209C23.5703 27.104 24.1739 25.696 24.1739 23.8969C24.1739 22.0978 23.5606 20.6996 22.3339 19.7022C21.1266 18.7049 19.3644 18.128 17.0473 17.9716V29.8809ZM6.44495 23.9262C6.44495 25.7058 7.04858 27.0942 8.25582 28.0916C9.48254 29.0889 11.2447 29.6853 13.5424 29.8809V17.9716C8.81077 18.3236 6.44495 20.3084 6.44495 23.9262ZM45.0795 29.4702H34.8568L32.8415 34.2222H28.9277L38.1281 13.6889H41.8666L51.0962 34.2222H47.124L45.0795 29.4702ZM43.8236 26.4782L39.9682 17.5022L36.142 26.4782H43.8236Z" fill="white"/>
<path d="M83.2124 13.6889H86.951V28.2676L97.933 13.6889H101.467V34.2222H97.7286V19.6729L86.7465 34.2222H83.2124V13.6889ZM116.604 34.5156C114.54 34.5156 112.671 34.0658 110.997 33.1662C109.341 32.2471 108.037 30.9858 107.083 29.3822C106.148 27.7787 105.681 25.9698 105.681 23.9556C105.681 21.9413 106.158 20.1324 107.112 18.5289C108.066 16.9253 109.371 15.6738 111.026 14.7742C112.7 13.8551 114.57 13.3956 116.634 13.3956C118.308 13.3956 119.837 13.6889 121.219 14.2756C122.602 14.8622 123.77 15.7129 124.724 16.8276L122.271 19.1449C120.791 17.5413 118.97 16.7396 116.809 16.7396C115.407 16.7396 114.151 17.0524 113.041 17.6782C111.931 18.2844 111.065 19.1351 110.442 20.2302C109.819 21.3253 109.507 22.5671 109.507 23.9556C109.507 25.344 109.819 26.5858 110.442 27.6809C111.065 28.776 111.931 29.6364 113.041 30.2622C114.151 30.8684 115.407 31.1716 116.809 31.1716C118.97 31.1716 120.791 30.36 122.271 28.7369L124.724 31.0836C123.77 32.1982 122.592 33.0489 121.19 33.6356C119.808 34.2222 118.279 34.5156 116.604 34.5156Z" fill="white"/>
<path d="M4.86792 2.44431C11.611 2.44431 74.3967 2.44442 83.9678 2.44444C84.478 2.44444 84.7165 3.03717 84.3979 3.4373L55.9811 39.1109H129" stroke="#07A7DA" stroke-width="4.5"/>
<path d="M0 4.88877C7.30189 4.88877 80.3208 4.88889 80.3208 4.88889L51.904 40.5626C51.5854 40.9628 51.869 41.5553 52.3794 41.5553H124.132" stroke="#00205F" stroke-width="4.5"/>
</g>
<defs>
<clipPath id="clip0">
<rect width="129" height="44" fill="white"/>
</clipPath>
</defs>
</svg>
