<svg width="61" height="61" viewBox="0 0 61 61" fill="none" xmlns="http://www.w3.org/2000/svg">
<g clip-path="url(#clip0)">
<path d="M30.4853 19.5977V29.9409H40.8286V26.6746L41.9173 24.4971L45.1836 22.864L47.3611 23.9527L49.5386 26.6746L48.9943 29.9409H59.3375V1.08876H30.4853V12.5208L33.7516 10.8876L35.9291 12.5208L38.1066 15.787L37.0179 18.5089L33.7516 20.1421L30.4853 19.5977Z" fill="#004C94"/>
<path d="M59.8818 59.3375H30.4853L30.174 48.9942H32.1184H35.9291L38.1066 46.2723L37.5622 43.5504L34.8403 40.8285L30.4853 41.3729V30.4853L41.3729 29.9409L40.2841 26.6746L42.4617 23.9527L45.1836 23.4084L48.9942 25.0415L49.5386 27.7634L48.9942 30.4853H59.8818V59.3375Z" fill="white"/>
<path d="M1.08878 29.9409V1.63314H30.4853L31.0297 11.9764H32.1185H35.3848L37.0179 13.6095L37.5623 17.4202L34.296 19.5977H29.9409V30.4853H19.5977L20.1421 32.6628V34.8404L18.509 37.0179L15.2427 37.5623L12.5208 35.9291L11.432 32.6628V29.9409H1.08878Z" fill="white" stroke="black"/>
<path d="M11.432 30.4853H1.08878V59.8819H29.9409V48.9942H32.1185H34.8404L37.0179 47.9055V45.1836V42.4617L33.2072 41.3729H29.9409V30.4853H21.7752L19.5977 31.5741V34.8404L16.8758 37.0179L13.0651 37.5623L10.8876 34.296L11.432 30.4853Z" fill="#004C94"/>
<path d="M12.36 9.64L10.72 9.38V8.14H21.76L21.96 11.76H20.36L19.62 9.56L15.3 9.34V15L18.28 14.94L18.66 13.18H19.94V18.26H18.68L18.28 16.46L15.3 16.38V21.6L18.36 21.8V23H10.82V21.8L12.36 21.6V9.64Z" fill="black"/>
<path d="M44.62 38.64L42.92 38.38V37.14H49.32V38.38L47.56 38.64V50.6L49.32 50.82V52H42.92V50.8L44.62 50.6V38.64Z" fill="black"/>
<path d="M59.7802 0H30.5001C29.8263 0 29.2801 0.546256 29.2801 1.22V12.2C29.2805 12.8738 29.8272 13.4196 30.501 13.4191C30.6317 13.419 30.7616 13.3979 30.8856 13.3566L32.4191 12.8454C34.0841 12.3004 35.8756 13.2084 36.4204 14.8734C36.9653 16.5384 36.0575 18.3298 34.3925 18.8747C33.7514 19.0845 33.0601 19.0845 32.419 18.8747L30.8854 18.3635C30.2462 18.1506 29.5553 18.4962 29.3424 19.1354C29.3011 19.2594 29.2801 19.3894 29.2799 19.52V29.2801H19.5199C18.8461 29.2805 18.3004 29.8272 18.3008 30.501C18.301 30.6317 18.322 30.7616 18.3633 30.8856L18.8745 32.4191C19.4196 34.0841 18.5116 35.8756 16.8466 36.4204C15.1816 36.9655 13.3901 36.0575 12.8453 34.3925C12.6354 33.7514 12.6354 33.0601 12.8453 32.419L13.3564 30.8854C13.5693 30.2462 13.2238 29.5553 12.5845 29.3424C12.4605 29.3011 12.3306 29.2801 12.1999 29.2799H1.22C0.546256 29.2799 0 29.8262 0 30.4999V59.78C0 60.4537 0.546256 61 1.22 61H59.7802C60.4539 61 61.0002 60.4537 61.0002 59.78V1.22C61.0002 0.546256 60.4539 0 59.7802 0ZM29.3426 48.4155C29.3013 48.5395 29.2802 48.6694 29.2801 48.8001V58.5601H2.44001V31.7201H10.5079C9.57565 34.676 11.2163 37.828 14.1722 38.7601C17.1281 39.6923 20.2801 38.0517 21.2122 35.0958C21.5587 33.9972 21.5587 32.8185 21.2122 31.7199H29.2801V41.48C29.2805 42.1537 29.8272 42.6995 30.501 42.699C30.6317 42.6989 30.7616 42.6778 30.8856 42.6365L32.4191 42.1253C34.0841 41.5804 35.8756 42.4883 36.4204 44.1533C36.9653 45.8183 36.0575 47.6097 34.3925 48.1546C33.7514 48.3644 33.0601 48.3644 32.419 48.1546L30.8854 47.6434C30.2463 47.4307 29.5555 47.7762 29.3426 48.4155ZM58.5601 58.5601H31.7201V50.4923C34.676 51.4245 37.828 49.7839 38.7601 46.828C39.6923 43.8721 38.0517 40.72 35.0958 39.788C33.9972 39.4415 32.8185 39.4415 31.7199 39.788V31.7201H41.48C42.1537 31.7196 42.6995 31.1729 42.699 30.4992C42.6989 30.3685 42.6778 30.2385 42.6365 30.1146L42.1253 28.581C41.5804 26.916 42.4883 25.1246 44.1533 24.5797C45.8183 24.0348 47.6097 24.9427 48.1546 26.6077C48.3644 27.2488 48.3644 27.9401 48.1546 28.5812L47.6434 30.1147C47.4305 30.754 47.7761 31.4448 48.4154 31.6577C48.5393 31.699 48.6693 31.7201 48.8 31.7202H58.56L58.5601 58.5601ZM58.5601 29.2801H50.4923C51.4245 26.3242 49.7839 23.1721 46.828 22.24C43.8721 21.3078 40.72 22.9484 39.788 25.9043C39.4415 27.0029 39.4415 28.1816 39.788 29.2802H31.7201V21.2123C33.4145 21.7615 35.2695 21.4652 36.7087 20.4157C39.2319 18.6159 39.8185 15.1113 38.0187 12.588C36.5973 10.5954 34.0486 9.75377 31.7201 10.508V2.44001H58.5601V29.2801Z" fill="black"/>
<path d="M35.096 10.5079C33.9974 10.1614 32.8187 10.1614 31.7201 10.5079V1.22C31.7201 0.546256 31.1738 0 30.5001 0H1.22C0.546256 0 0 0.546256 0 1.22V30.5001C0 31.1738 0.546256 31.7201 1.22 31.7201H10.5079C9.57565 34.676 11.2163 37.828 14.1722 38.7601C17.1281 39.6922 20.2801 38.0517 21.2122 35.0958C21.5587 33.9972 21.5587 32.8185 21.2122 31.7199H30.5001C31.1738 31.7199 31.7201 31.1737 31.7201 30.4999V21.212C34.676 22.1443 37.828 20.5037 38.7601 17.5478C39.6923 14.592 38.0519 11.4401 35.096 10.5079ZM34.3927 18.8747C33.7515 19.0845 33.0603 19.0845 32.4191 18.8747L30.8856 18.3635C30.2463 18.1506 29.5555 18.4962 29.3426 19.1354C29.3013 19.2594 29.2802 19.3894 29.2801 19.5201V29.2801H19.5201C18.8463 29.2805 18.3005 29.8272 18.301 30.501C18.3011 30.6317 18.3222 30.7616 18.3635 30.8856L18.8747 32.4191C19.4197 34.0841 18.5117 35.8756 16.8467 36.4204C15.1817 36.9653 13.3903 36.0575 12.8454 34.3925C12.6356 33.7514 12.6356 33.0601 12.8454 32.419L13.3566 30.8854C13.5695 30.2462 13.2239 29.5553 12.5846 29.3424C12.4607 29.3011 12.3307 29.2801 12.2 29.2799H2.44001V2.44001H29.2801V12.2C29.2805 12.8738 29.8272 13.4196 30.501 13.4191C30.6317 13.419 30.7616 13.3979 30.8856 13.3566L32.4191 12.8454C34.0841 12.3005 35.8756 13.2084 36.4205 14.8734C36.9655 16.5382 36.0575 18.3298 34.3927 18.8747Z" fill="black"/>
</g>
<defs>
<clipPath id="clip0">
<rect width="61" height="61" fill="white"/>
</clipPath>
</defs>
</svg>
