<svg width="134" height="49" viewBox="0 0 134 49" fill="none" xmlns="http://www.w3.org/2000/svg">
<path d="M0.454681 10.269C0.454681 4.66208 5.11001 0.116752 10.8526 0.116752H50.5206V38.8477C50.5206 44.4548 45.8654 49 40.1227 49H0.454681V10.269Z" fill="#0059AD"/>
<path d="M39.6475 28.2893H9.87204C9.5147 28.2893 9.22472 28.6077 9.22472 28.9999C9.22472 29.3922 9.5147 29.7107 9.87204 29.7107H39.6476C40.0049 29.7107 40.2949 29.3922 40.2949 28.9999C40.2949 28.6077 40.0048 28.2893 39.6475 28.2893Z" fill="white"/>
<path d="M15.5027 19.9086H11.3311C10.9473 19.9086 10.6358 20.2216 10.6358 20.6072V28.9901C10.6358 29.3757 10.9473 29.6887 11.3311 29.6887H15.5027C15.8864 29.6887 16.1979 29.3757 16.1979 28.9901V20.6072C16.1979 20.2215 15.8864 19.9086 15.5027 19.9086ZM14.8073 28.2915H12.0263V21.3057H14.8074V28.2915H14.8073Z" fill="white"/>
<path d="M30.4135 12.9228H26.2419C25.8581 12.9228 25.5466 13.2358 25.5466 13.6214V28.9901C25.5466 29.3757 25.8581 29.6887 26.2419 29.6887H30.4135C30.7973 29.6887 31.1088 29.3757 31.1088 28.9901V13.6214C31.1088 13.2358 30.7973 12.9228 30.4135 12.9228ZM29.7182 28.2915H26.9372V14.32H29.7182V28.2915Z" fill="white"/>
<path d="M22.9437 15.7172H18.7721C18.3883 15.7172 18.0768 16.0301 18.0768 16.4157V28.9901C18.0768 29.3757 18.3883 29.6887 18.7721 29.6887H22.9437C23.3275 29.6887 23.639 29.3757 23.639 28.9901V16.4157C23.639 16.0301 23.3275 15.7172 22.9437 15.7172ZM22.2484 28.2915H19.4673V17.1143H22.2484V28.2915Z" fill="white"/>
<path d="M37.8545 7.98477H33.6829C33.2992 7.98477 32.9876 8.28863 32.9876 8.66305V29.0105C32.9876 29.3849 33.2992 29.6887 33.6829 29.6887H37.8545C38.2383 29.6887 38.5498 29.3849 38.5498 29.0105V8.66305C38.5498 8.28858 38.2383 7.98477 37.8545 7.98477ZM37.1592 28.3322H34.3782V9.34127H37.1592V28.3322Z" fill="white"/>
<path d="M11.7255 18.1624L20.1681 12.5407C20.2287 12.5003 20.3037 12.4882 20.3739 12.5074L23.0361 13.2347C23.1043 13.2534 23.1772 13.2424 23.237 13.2046L35.9754 5.14214" stroke="white" stroke-width="1.2" stroke-linecap="round"/>
<path d="M33.8155 4.19757C33.5404 4.24406 33.3548 4.50594 33.4012 4.78239C33.4474 5.05883 33.7081 5.24523 33.9832 5.19868L33.8155 4.19757ZM35.2943 6.99264C35.1677 7.24249 35.2667 7.54812 35.5154 7.67528C35.764 7.80244 36.0682 7.703 36.1948 7.45315L35.2943 6.99264ZM37.271 4.20954L37.7212 4.4398L37.271 4.20954ZM33.9832 5.19868L37.3011 4.63757L37.1334 3.6364L33.8155 4.19757L33.9832 5.19868ZM36.8207 3.97929C36.624 4.36762 35.8287 5.93767 35.2943 6.99264L36.1948 7.45315C36.7292 6.39817 37.5245 4.82812 37.7212 4.4398L36.8207 3.97929ZM37.3011 4.63757C36.9439 4.69797 36.6463 4.32366 36.8207 3.97929L37.7212 4.4398C37.9333 4.02107 37.5725 3.56219 37.1334 3.6364L37.3011 4.63757Z" fill="white"/>
<path d="M36.8029 33.9171C36.4649 33.9171 36.1529 33.9998 35.8762 34.1246C35.4555 33.5841 34.8024 33.2343 34.0663 33.2336C33.6859 33.2336 33.3359 33.335 33.0353 33.4869L33.0039 33.5044L32.0639 34.0645C31.6425 33.5583 31.0113 33.234 30.3032 33.2336C29.9228 33.2336 29.5729 33.335 29.2722 33.4869L29.2346 33.5082L25.6357 35.7224C24.8229 35.4812 23.9206 35.2166 23.0486 34.9682C22.1287 34.706 21.2441 34.4623 20.5351 34.2826C20.18 34.1926 19.8695 34.1187 19.6156 34.0661C19.4883 34.0396 19.3755 34.0188 19.2752 34.0033C19.1736 33.9882 19.0888 33.9776 18.9931 33.9772C18.9192 33.9776 18.8552 33.9841 18.7824 33.993C18.5173 34.0281 18.1402 34.1091 17.6956 34.2139C16.787 34.4283 15.6274 34.7403 14.9867 34.9155V33.8262C14.9867 33.0704 14.371 32.4518 13.6184 32.4518H9.85576C9.10315 32.4519 8.48746 33.0704 8.48746 33.8264V44.4782C8.48746 45.234 9.10315 45.8528 9.85576 45.8528H13.6185C14.371 45.8528 14.9868 45.2345 14.9868 44.4782V43.6513C15.7989 43.8289 17.6012 44.2198 19.5015 44.6122C20.7867 44.8772 22.1148 45.1421 23.2118 45.3421C23.7606 45.4421 24.2514 45.5254 24.6534 45.5848C25.0587 45.6437 25.3607 45.6797 25.5909 45.6812C25.7702 45.6807 25.9399 45.6467 26.1232 45.5959C26.4643 45.499 26.8525 45.335 27.2968 45.1183C28.8432 44.3609 31.0643 42.9421 33.1595 41.5386C35.2509 40.136 37.2072 38.7514 38.1657 38.0882C38.7656 37.6728 39.103 36.9708 39.103 36.2279C39.102 34.952 38.0733 33.9177 36.8029 33.9171ZM13.9605 44.4782C13.9605 44.6645 13.8038 44.8218 13.6185 44.8218H9.85576C9.6704 44.8218 9.51373 44.6645 9.51373 44.4782V33.8264C9.51373 33.6402 9.6704 33.4828 9.85576 33.4828H13.6185C13.8038 33.4828 13.9605 33.6402 13.9605 33.8264V44.4782ZM37.5838 37.239C36.405 38.0548 33.7673 39.9259 31.2142 41.5914C29.9386 42.4239 28.6842 43.2041 27.6556 43.7695C27.1419 44.0523 26.6835 44.2812 26.3171 44.434C26.1341 44.5102 25.974 44.5675 25.8471 44.603C25.7208 44.6391 25.6257 44.6513 25.5912 44.6503C25.4793 44.6513 25.1831 44.6218 24.8024 44.565C23.4547 44.3665 20.932 43.8604 18.7597 43.4051C17.6727 43.1772 16.6713 42.9619 15.9418 42.8041C15.518 42.7122 15.1909 42.6406 14.987 42.5959V35.9845C15.0873 35.9566 15.2186 35.9206 15.3763 35.8777C15.9172 35.7303 16.7425 35.5093 17.4828 35.3262C17.8526 35.2344 18.2018 35.1527 18.4792 35.0946C18.6174 35.0658 18.7382 35.0427 18.8309 35.0279C18.9218 35.0128 18.9926 35.0073 18.9934 35.0083C18.9951 35.008 19.0488 35.0114 19.122 35.0228C19.4052 35.0654 19.9857 35.2018 20.6927 35.3877C22.8234 35.9468 26.1832 36.9574 27.5406 37.3714C28.0102 37.5136 28.4354 37.728 28.7146 37.9882C28.8549 38.1181 28.9602 38.2569 29.031 38.407C29.1018 38.5579 29.1418 38.7211 29.1425 38.9207C29.1422 39.3251 28.9807 39.6866 28.717 39.9523C28.455 40.2142 28.0992 40.3751 27.7021 40.3787L26.3779 40.2482L21.8589 39.6656C21.5776 39.6296 21.3204 39.8289 21.2841 40.1112C21.2479 40.3939 21.447 40.6518 21.7278 40.6883L26.2615 41.2726L27.6647 41.4107H27.6899C29.0586 41.4102 30.1679 40.2959 30.1686 38.9209C30.1693 38.5749 30.093 38.2495 29.9579 37.9646C29.7544 37.5355 29.427 37.2032 29.0569 36.9503C28.6854 36.6966 28.266 36.516 27.8391 36.3854C27.6011 36.3129 27.3011 36.2215 26.9584 36.1181L29.7431 34.4045C29.9237 34.3151 30.1085 34.2646 30.3041 34.2643C30.6359 34.2639 30.9355 34.3931 31.1621 34.6021L27.9399 36.5915C27.6964 36.7365 28.3121 36.5129 28.4568 36.7576C28.6014 37.0022 28.4707 37.3844 28.7146 37.239L33.5039 34.4056C33.6855 34.3152 33.8713 34.2644 34.0677 34.2644C34.4217 34.264 34.7402 34.4121 34.9711 34.6472L29.6971 37.7958C29.4532 37.9409 29.7591 37.9277 29.9038 38.1726C30.0485 38.4173 29.815 38.9068 30.0589 38.7614L35.7976 35.3532C35.8367 35.3352 35.8367 35.3352 35.8367 35.3352C35.8367 35.3352 36.0434 35.2106 36.1153 35.1639L36.2408 35.0889C36.4224 34.9985 36.6082 34.9477 36.8045 34.9477C37.1572 34.9481 37.4726 35.0904 37.7049 35.3226C37.9361 35.556 38.0777 35.8731 38.0781 36.2277C38.0764 36.6597 37.8794 37.037 37.5838 37.239Z" fill="white"/>
<path d="M64.2512 26.0558C64.0491 26.0558 63.8673 25.9848 63.7056 25.8426C63.5641 25.6802 63.4934 25.4975 63.4934 25.2944V9.51777H58.0978C57.8957 9.51777 57.7139 9.4467 57.5522 9.30457C57.4107 9.14213 57.34 8.95939 57.34 8.75635V5.49746C57.34 5.27411 57.4107 5.09137 57.5522 4.94924C57.7139 4.80711 57.8957 4.73604 58.0978 4.73604H74.4059C74.6282 4.73604 74.81 4.80711 74.9515 4.94924C75.0929 5.09137 75.1637 5.27411 75.1637 5.49746V8.75635C75.1637 8.9797 75.0929 9.16244 74.9515 9.30457C74.81 9.4467 74.6282 9.51777 74.4059 9.51777H69.0103V25.2944C69.0103 25.4975 68.9395 25.6802 68.7981 25.8426C68.6566 25.9848 68.4747 26.0558 68.2525 26.0558H64.2512ZM78.6764 26.0558C78.4743 26.0558 78.2924 25.9848 78.1308 25.8426C77.9893 25.6802 77.9186 25.4975 77.9186 25.2944V5.49746C77.9186 5.27411 77.9893 5.09137 78.1308 4.94924C78.2924 4.80711 78.4743 4.73604 78.6764 4.73604H92.8323C93.0545 4.73604 93.2364 4.80711 93.3779 4.94924C93.5193 5.09137 93.5901 5.27411 93.5901 5.49746V8.36041C93.5901 8.56345 93.5193 8.74619 93.3779 8.90863C93.2364 9.05076 93.0545 9.12183 92.8323 9.12183H83.1626V13.2335H92.1654C92.3877 13.2335 92.5695 13.3147 92.711 13.4772C92.8525 13.6193 92.9232 13.802 92.9232 14.0254V16.6751C92.9232 16.8782 92.8525 17.0609 92.711 17.2233C92.5695 17.3655 92.3877 17.4365 92.1654 17.4365H83.1626V21.67H93.0748C93.297 21.67 93.4789 21.7411 93.6204 21.8832C93.7618 22.0254 93.8326 22.2081 93.8326 22.4315V25.2944C93.8326 25.4975 93.7618 25.6802 93.6204 25.8426C93.4789 25.9848 93.297 26.0558 93.0748 26.0558H78.6764ZM98.0359 26.0558C97.8338 26.0558 97.6519 25.9848 97.4903 25.8426C97.3488 25.6802 97.2781 25.4975 97.2781 25.2944V5.49746C97.2781 5.27411 97.3488 5.09137 97.4903 4.94924C97.6519 4.80711 97.8338 4.73604 98.0359 4.73604H111.101C111.323 4.73604 111.505 4.80711 111.646 4.94924C111.788 5.09137 111.858 5.27411 111.858 5.49746V8.54315C111.858 8.7665 111.788 8.95939 111.646 9.12183C111.505 9.26396 111.323 9.33503 111.101 9.33503H102.734V25.2944C102.734 25.5178 102.653 25.7005 102.492 25.8426C102.35 25.9848 102.168 26.0558 101.946 26.0558H98.0359ZM113.175 26.0558C113.014 26.0558 112.862 25.9949 112.721 25.8731C112.599 25.731 112.539 25.5787 112.539 25.4162C112.539 25.2944 112.549 25.203 112.569 25.1421L119.693 5.58883C119.753 5.34518 119.885 5.14213 120.087 4.9797C120.289 4.81726 120.551 4.73604 120.875 4.73604H125.361C125.684 4.73604 125.947 4.81726 126.149 4.9797C126.351 5.14213 126.483 5.34518 126.543 5.58883L133.636 25.1421L133.697 25.4162C133.697 25.5787 133.626 25.731 133.485 25.8731C133.363 25.9949 133.212 26.0558 133.03 26.0558H129.302C128.817 26.0558 128.493 25.8426 128.332 25.4162L127.149 22.3096H119.056L117.904 25.4162C117.742 25.8426 117.409 26.0558 116.904 26.0558H113.175ZM125.937 17.9239L123.118 9.88325L120.299 17.9239H125.937Z" fill="white"/>
<path d="M65.0242 43.8325C64.9065 43.8325 64.8059 43.7909 64.7236 43.7081C64.6529 43.6371 64.6175 43.5421 64.6175 43.4239V42.0203C62.8609 42.0203 61.5231 41.6411 60.6036 40.8832C59.6842 40.1254 59.1476 38.9704 58.9945 37.4188C58.9829 37.3122 58.9769 37.1405 58.9769 36.9036C58.9769 36.5601 58.9829 36.3173 58.9945 36.1751C59.0769 34.6709 59.6074 33.5279 60.5859 32.7462C61.5762 31.9645 62.92 31.5736 64.6175 31.5736V30.3477C64.6175 30.2174 64.6529 30.1168 64.7236 30.0457C64.8059 29.9746 64.9065 29.9391 65.0242 29.9391H65.9437C66.0614 29.9391 66.1559 29.9806 66.2266 30.0635C66.3089 30.1345 66.3504 30.2293 66.3504 30.3477V31.5736C68.0478 31.5736 69.3856 31.9645 70.3642 32.7462C71.3544 33.5279 71.8849 34.6709 71.9556 36.1751C71.9794 36.4831 71.991 36.6904 71.991 36.797C71.991 36.9036 71.9794 37.1108 71.9556 37.4188C71.8258 38.9704 71.2953 40.1254 70.3642 40.8832C69.4331 41.6411 68.0948 42.0203 66.3504 42.0203V43.4239C66.3504 43.5421 66.3089 43.6371 66.2266 43.7081C66.1559 43.7909 66.0614 43.8325 65.9437 43.8325H65.0242ZM64.6175 33.0838C63.4267 33.0838 62.5073 33.3384 61.8591 33.8477C61.2225 34.357 60.8572 35.1565 60.7628 36.2462C60.7512 36.3646 60.7451 36.5186 60.7451 36.7081C60.7451 36.9687 60.7512 37.176 60.7628 37.3299C60.8219 38.4196 61.1755 39.2191 61.8237 39.7284C62.484 40.2376 63.4151 40.4924 64.6175 40.4924V33.0838ZM66.3327 40.4924C68.7966 40.4924 70.0874 39.4382 70.2051 37.3299C70.2167 37.2115 70.2228 37.0279 70.2228 36.7792C70.2228 36.5423 70.2167 36.3646 70.2051 36.2462C70.0874 35.1565 69.71 34.357 69.0734 33.8477C68.4369 33.3384 67.5234 33.0838 66.3327 33.0838V40.4924ZM82.184 34.0254C82.278 34.0254 82.3609 34.0609 82.4316 34.132C82.5139 34.203 82.5554 34.2859 82.5554 34.3807V42.8553C82.5554 42.9736 82.5139 43.0746 82.4316 43.1574C82.3609 43.2284 82.2664 43.264 82.1487 43.264H81.3176C81.1994 43.264 81.0994 43.2284 81.017 43.1574C80.9463 43.0746 80.9109 42.9736 80.9109 42.8553V36.4061L76.0129 42.9975C75.8831 43.1751 75.73 43.264 75.5532 43.264H74.7575C74.6514 43.264 74.5569 43.2284 74.4746 43.1574C74.4039 43.0746 74.3685 42.9858 74.3685 42.8909V34.434C74.3685 34.3156 74.4039 34.2208 74.4746 34.1497C74.5569 34.0669 74.657 34.0254 74.7752 34.0254H75.6239C75.7416 34.0254 75.8361 34.0669 75.9068 34.1497C75.9892 34.2208 76.0306 34.3156 76.0306 34.434V40.8477L80.9109 34.2919C81.0402 34.1142 81.1938 34.0254 81.3706 34.0254H82.184ZM85.5502 43.264C85.432 43.264 85.332 43.2284 85.2496 43.1574C85.1789 43.0746 85.1435 42.9736 85.1435 42.8553V34.434C85.1435 34.3156 85.1789 34.2208 85.2496 34.1497C85.332 34.0669 85.432 34.0254 85.5502 34.0254H86.399C86.5167 34.0254 86.6112 34.0669 86.6819 34.1497C86.7642 34.2208 86.8057 34.3156 86.8057 34.434V37.8452H91.6152V34.434C91.6152 34.3156 91.6506 34.2208 91.7213 34.1497C91.8037 34.0669 91.9037 34.0254 92.0219 34.0254H92.853C92.9707 34.0254 93.0652 34.0669 93.1359 34.1497C93.2182 34.2208 93.2597 34.3156 93.2597 34.434V42.8553C93.2597 42.9736 93.2182 43.0746 93.1359 43.1574C93.0652 43.2284 92.9707 43.264 92.853 43.264H92.0219C91.9037 43.264 91.8037 43.2284 91.7213 43.1574C91.6506 43.0746 91.6152 42.9736 91.6152 42.8553V39.2665H86.8057V42.8553C86.8057 42.9736 86.7642 43.0746 86.6819 43.1574C86.6112 43.2284 86.5167 43.264 86.399 43.264H85.5502ZM98.4825 43.4416C97.905 43.4416 97.3685 43.3234 96.8734 43.0863C96.3783 42.8492 95.9832 42.5294 95.6887 42.1269C95.4058 41.7122 95.2643 41.2563 95.2643 40.7589C95.2643 39.9772 95.5826 39.3376 96.2192 38.8401C96.8674 38.3308 97.7398 37.9991 98.8361 37.8452L101.471 37.4721V36.9569C101.471 35.7487 100.781 35.1447 99.402 35.1447C98.8831 35.1447 98.4587 35.2572 98.1288 35.4822C97.7989 35.6954 97.5514 35.9501 97.3862 36.2462C97.3508 36.3528 97.3038 36.4298 97.2447 36.4772C97.1978 36.5245 97.127 36.5482 97.0326 36.5482H96.2722C96.1661 36.5482 96.0716 36.5127 95.9893 36.4416C95.9186 36.3587 95.8832 36.264 95.8832 36.1574C95.8948 35.8731 96.0247 35.5533 96.2722 35.198C96.5314 34.8308 96.9265 34.5169 97.4569 34.2563C97.9874 33.9839 98.6416 33.8477 99.4197 33.8477C100.74 33.8477 101.689 34.1616 102.266 34.7893C102.844 35.4052 103.133 36.1751 103.133 37.099V42.8553C103.133 42.9736 103.091 43.0746 103.009 43.1574C102.938 43.2284 102.844 43.264 102.726 43.264H101.913C101.795 43.264 101.695 43.2284 101.612 43.1574C101.542 43.0746 101.506 42.9736 101.506 42.8553V42.0914C101.247 42.4706 100.87 42.7904 100.374 43.0508C99.8794 43.3112 99.2489 43.4416 98.4825 43.4416ZM98.8538 42.1091C99.6202 42.1091 100.245 41.8604 100.728 41.3629C101.223 40.8538 101.471 40.1254 101.471 39.1777V38.6802L99.4197 38.9822C98.5825 39.1007 97.952 39.302 97.5277 39.5863C97.1033 39.8589 96.8911 40.2081 96.8911 40.6345C96.8911 41.1081 97.0856 41.4756 97.4746 41.736C97.8636 41.9848 98.3234 42.1091 98.8538 42.1091ZM106.081 43.264C105.964 43.264 105.864 43.2284 105.781 43.1574C105.71 43.0746 105.675 42.9736 105.675 42.8553V34.434C105.675 34.3156 105.71 34.2208 105.781 34.1497C105.864 34.0669 105.964 34.0254 106.081 34.0254H106.93C107.048 34.0254 107.142 34.0669 107.213 34.1497C107.296 34.2208 107.337 34.3156 107.337 34.434V37.8452H112.146V34.434C112.146 34.3156 112.182 34.2208 112.252 34.1497C112.335 34.0669 112.435 34.0254 112.553 34.0254H113.384C113.502 34.0254 113.596 34.0669 113.667 34.1497C113.75 34.2208 113.791 34.3156 113.791 34.434V42.8553C113.791 42.9736 113.75 43.0746 113.667 43.1574C113.596 43.2284 113.502 43.264 113.384 43.264H112.553C112.435 43.264 112.335 43.2284 112.252 43.1574C112.182 43.0746 112.146 42.9736 112.146 42.8553V39.2665H107.337V42.8553C107.337 42.9736 107.296 43.0746 107.213 43.1574C107.142 43.2284 107.048 43.264 106.93 43.264H106.081ZM120.163 43.4416C118.902 43.4416 117.912 43.0863 117.192 42.3756C116.485 41.6533 116.108 40.6462 116.061 39.3553L116.043 38.6447L116.061 37.934C116.108 36.643 116.485 35.6421 117.192 34.9315C117.912 34.209 118.902 33.8477 120.163 33.8477C121.012 33.8477 121.731 34.0017 122.32 34.3096C122.91 34.6176 123.346 34.9966 123.629 35.4467C123.924 35.8968 124.083 36.3469 124.106 36.797C124.118 36.9154 124.083 37.0102 124 37.0812C123.918 37.1523 123.818 37.1878 123.699 37.1878H122.851C122.733 37.1878 122.645 37.1641 122.585 37.1168C122.527 37.0694 122.468 36.9746 122.409 36.8325C122.209 36.264 121.926 35.8613 121.56 35.6244C121.195 35.3756 120.735 35.2513 120.181 35.2513C119.45 35.2513 118.867 35.4822 118.43 35.9442C118.006 36.3943 117.776 37.0872 117.74 38.0228L117.723 38.6624L117.74 39.2665C117.776 40.2142 118.006 40.9127 118.43 41.3629C118.854 41.8132 119.438 42.0381 120.181 42.0381C120.735 42.0381 121.195 41.9198 121.56 41.6827C121.926 41.434 122.209 41.0254 122.409 40.4569C122.468 40.3147 122.527 40.2198 122.585 40.1726C122.645 40.1132 122.733 40.0838 122.851 40.0838H123.699C123.818 40.0838 123.918 40.1254 124 40.2081C124.083 40.2792 124.118 40.3741 124.106 40.4924C124.083 40.9305 123.924 41.3807 123.629 41.8426C123.346 42.2929 122.91 42.6716 122.32 42.9797C121.743 43.2878 121.024 43.4416 120.163 43.4416Z" fill="white"/>
</svg>
