<svg width="253" height="253" viewBox="0 0 253 253" fill="none" xmlns="http://www.w3.org/2000/svg">
<path d="M40.5195 213.328H24.707C13.791 213.328 4.94141 204.479 4.94141 193.563V24.707C4.94141 13.791 13.791 4.94141 24.707 4.94141H228.293C239.209 4.94141 248.059 13.791 248.059 24.707V193.563C248.059 204.479 239.209 213.328 228.293 213.328H208.033H40.5195Z" fill="white"/>
<path d="M228.293 4.94141H24.707C13.791 4.94141 4.94141 13.791 4.94141 24.707V40.5195H248.059V24.707C248.059 13.791 239.209 4.94141 228.293 4.94141Z" fill="#0054A3"/>
<path d="M59.2969 193.703H27.6719V248.059H59.2969V193.703Z" fill="#31D138"/>
<path d="M169.984 180.855H138.359V248.059H169.984V180.855Z" fill="#F33434"/>
<path d="M114.641 139.066H83.0156V248.059H114.641V139.066Z" fill="#F39B34"/>
<path d="M225.328 131.688H193.703V248.059H225.328V131.688Z" fill="#0054A3"/>
<path d="M96.0461 97.8102C103.142 97.8102 108.894 92.0581 108.894 84.9625C108.894 77.867 103.142 72.1149 96.0461 72.1149C88.9506 72.1149 83.1985 77.867 83.1985 84.9625C83.1985 92.0581 88.9506 97.8102 96.0461 97.8102Z" fill="#F39B34"/>
<path d="M153.712 156.643C160.808 156.643 166.56 150.89 166.56 143.795C166.56 136.699 160.808 130.947 153.712 130.947C146.617 130.947 140.865 136.699 140.865 143.795C140.865 150.89 146.617 156.643 153.712 156.643Z" fill="#F33434"/>
<path d="M209.516 97.8102C216.611 97.8102 222.363 92.0581 222.363 84.9625C222.363 77.867 216.611 72.1149 209.516 72.1149C202.42 72.1149 196.668 77.867 196.668 84.9625C196.668 92.0581 202.42 97.8102 209.516 97.8102Z" fill="#0054A3"/>
<path d="M43.1582 151.914C50.2538 151.914 56.0059 146.162 56.0059 139.066C56.0059 131.97 50.2538 126.218 43.1582 126.218C36.0626 126.218 30.3105 131.97 30.3105 139.066C30.3105 146.162 36.0626 151.914 43.1582 151.914Z" fill="#31D138"/>
<path d="M235.746 217.67C245.26 217.67 253 209.93 253 200.416V24.707C253 11.0836 241.916 0 228.293 0H24.707C11.0836 0 0 11.0836 0 24.707V200.416C0 209.93 7.74022 217.67 17.2539 217.67H22.7305V243.117H4.94141C2.21227 243.117 0 245.33 0 248.059C0 250.787 2.21227 253 4.94141 253H248.059C250.788 253 253 250.787 253 248.059C253 245.33 250.788 243.117 248.059 243.117H230.27V217.67H235.746ZM24.707 9.88281H228.293C236.467 9.88281 243.117 16.533 243.117 24.707V35.5781H10.3789C10.2114 35.5781 10.0459 35.587 9.88281 35.6033V24.707C9.88281 16.533 16.533 9.88281 24.707 9.88281ZM32.6133 243.117V198.645H54.3555V243.117H32.6133ZM87.957 243.117V144.008H109.699V243.117H87.957ZM143.301 243.117V185.797H165.043V243.117H143.301ZM198.645 243.117V189.874C198.645 187.145 196.432 184.932 193.703 184.932C190.974 184.932 188.762 187.145 188.762 189.874V243.117H174.926V180.855C174.926 178.127 172.714 175.914 169.984 175.914H138.359C135.63 175.914 133.418 178.127 133.418 180.855V243.117H119.582V139.067C119.582 136.338 117.37 134.126 114.641 134.126H83.0156C80.2865 134.126 78.0742 136.338 78.0742 139.067V243.117H64.2383V193.703C64.2383 190.974 62.026 188.762 59.2969 188.762H27.6719C24.9427 188.762 22.7305 190.974 22.7305 193.703V207.787H17.2539C13.1891 207.787 9.88281 204.48 9.88281 200.416V45.4357C10.0459 45.452 10.2114 45.4609 10.3789 45.4609H243.117V200.416C243.117 204.48 239.81 207.787 235.746 207.787H230.27V131.688C230.27 128.96 228.057 126.747 225.328 126.747H193.703C190.974 126.747 188.762 128.96 188.762 131.688V156.642C188.762 159.371 190.974 161.583 193.703 161.583C196.432 161.583 198.645 159.371 198.645 156.642V136.63H220.387V243.117H198.645Z" fill="black"/>
<path d="M109.731 27.6719H221.375C224.104 27.6719 226.317 25.4591 226.317 22.7305C226.317 20.0018 224.104 17.7891 221.375 17.7891H109.731C107.002 17.7891 104.79 20.0018 104.79 22.7305C104.79 25.4591 107.002 27.6719 109.731 27.6719Z" fill="#0054A3"/>
<path d="M51.3906 27.6719C52.6902 27.6719 53.9651 27.1431 54.8842 26.2235C55.8033 25.3049 56.332 24.0301 56.332 22.7305C56.332 21.4309 55.8033 20.156 54.8842 19.2369C53.9651 18.3178 52.6902 17.7891 51.3906 17.7891C50.091 17.7891 48.8162 18.3173 47.8971 19.2369C46.9779 20.156 46.4492 21.4309 46.4492 22.7305C46.4492 24.0301 46.9779 25.3049 47.8971 26.2235C48.8162 27.1431 50.091 27.6719 51.3906 27.6719Z" fill="#F2F2F2"/>
<path d="M31.625 27.6719C32.9246 27.6719 34.1995 27.1431 35.1186 26.2235C36.0377 25.3049 36.5664 24.0301 36.5664 22.7305C36.5664 21.4309 36.0377 20.156 35.1186 19.2369C34.1995 18.3178 32.9246 17.7891 31.625 17.7891C30.3254 17.7891 29.0505 18.3173 28.1314 19.2369C27.2123 20.156 26.6836 21.4309 26.6836 22.7305C26.6836 24.0301 27.2123 25.3049 28.1314 26.2235C29.0505 27.1431 30.3254 27.6719 31.625 27.6719Z" fill="#F2F2F2"/>
<path d="M71.1562 27.6719C72.4558 27.6719 73.7307 27.1431 74.6498 26.2235C75.5689 25.3049 76.0977 24.0301 76.0977 22.7305C76.0977 21.4309 75.5689 20.156 74.6498 19.2369C73.7307 18.3178 72.4608 17.7891 71.1562 17.7891C69.8567 17.7891 68.5818 18.3173 67.6627 19.2369C66.7436 20.156 66.2148 21.4309 66.2148 22.7305C66.2148 24.0301 66.7436 25.3049 67.6627 26.2235C68.5818 27.1431 69.8567 27.6719 71.1562 27.6719Z" fill="#F2F2F2"/>
<path d="M193.703 169.312C192.404 169.312 191.129 169.837 190.21 170.76C189.29 171.679 188.762 172.954 188.762 174.254C188.762 175.553 189.29 176.828 190.21 177.747C191.129 178.666 192.404 179.195 193.703 179.195C195.003 179.195 196.278 178.666 197.197 177.747C198.116 176.828 198.645 175.553 198.645 174.254C198.645 172.949 198.116 171.679 197.197 170.76C196.278 169.836 195.003 169.312 193.703 169.312Z" fill="black"/>
<path d="M209.516 102.751C219.325 102.751 227.305 94.7712 227.305 84.962C227.305 75.1529 219.325 67.173 209.516 67.173C199.706 67.173 191.727 75.1529 191.727 84.962C191.727 88.8583 192.989 92.4636 195.122 95.3973L162.298 128.221C159.751 126.811 156.825 126.005 153.713 126.005C150.909 126.005 148.255 126.66 145.894 127.821L111.62 93.5477C113.03 91.0004 113.836 88.0741 113.836 84.962C113.836 75.1529 105.856 67.173 96.0466 67.173C86.2374 67.173 78.2575 75.1529 78.2575 84.962C78.2575 88.3904 79.2349 91.5934 80.9219 94.3122L51.7414 123.492C49.1942 122.082 46.2679 121.277 43.1562 121.277C33.3471 121.277 25.3672 129.257 25.3672 139.066C25.3672 148.875 33.3471 156.855 43.1562 156.855C52.9654 156.855 60.9453 148.875 60.9453 139.066C60.9453 135.954 60.1399 133.028 58.7301 130.48L88.2589 100.951C90.6125 102.102 93.2552 102.751 96.0466 102.751C99.1582 102.751 102.084 101.945 104.632 100.535L138.569 134.472C136.894 137.185 135.924 140.377 135.924 143.793C135.924 153.603 143.904 161.582 153.713 161.582C163.522 161.582 171.502 153.603 171.502 143.793C171.502 140.681 170.696 137.755 169.287 135.208L202.989 101.505C205.012 102.306 207.212 102.751 209.516 102.751ZM209.516 77.0558C213.875 77.0558 217.422 80.6027 217.422 84.962C217.422 89.3213 213.875 92.8683 209.516 92.8683C205.156 92.8683 201.609 89.3213 201.609 84.962C201.609 80.6027 205.156 77.0558 209.516 77.0558ZM43.1567 146.973C38.7974 146.973 35.2505 143.426 35.2505 139.067C35.2505 134.708 38.7974 131.161 43.1567 131.161C47.5161 131.161 51.063 134.708 51.063 139.067C51.063 143.426 47.5161 146.973 43.1567 146.973ZM96.0471 92.8683C91.6878 92.8683 88.1408 89.3213 88.1408 84.962C88.1408 80.6027 91.6878 77.0558 96.0471 77.0558C100.406 77.0558 103.953 80.6027 103.953 84.962C103.953 89.3213 100.406 92.8683 96.0471 92.8683ZM153.713 151.701C149.354 151.701 145.807 148.154 145.807 143.794C145.807 139.435 149.354 135.888 153.713 135.888C158.073 135.888 161.62 139.435 161.62 143.794C161.62 148.154 158.073 151.701 153.713 151.701Z" fill="black"/>
<path d="M69.8022 72.1544C71.1018 72.1544 72.3718 71.6262 73.2958 70.7066C74.2149 69.7875 74.7437 68.5126 74.7437 67.213C74.7437 65.9134 74.2149 64.6385 73.2958 63.7199C72.3718 62.8008 71.1018 62.2716 69.8022 62.2716C68.4977 62.2716 67.2228 62.8003 66.3037 63.7199C65.3846 64.6385 64.8608 65.9134 64.8608 67.213C64.8608 68.5126 65.3846 69.7875 66.3037 70.7066C67.2278 71.6257 68.4977 72.1544 69.8022 72.1544Z" fill="black"/>
<path d="M27.6719 72.1549H51.3906C54.1198 72.1549 56.332 69.9421 56.332 67.2135C56.332 64.4849 54.1198 62.2721 51.3906 62.2721H27.6719C24.9427 62.2721 22.7305 64.4849 22.7305 67.2135C22.7305 69.9421 24.9427 72.1549 27.6719 72.1549Z" fill="black"/>
<path d="M45.9414 72.1528H69.6602C72.3893 72.1528 74.6016 69.9401 74.6016 67.2114C74.6016 64.4828 72.3893 62.27 69.6602 62.27H45.9414C43.2123 62.27 41 64.4828 41 67.2114C41 69.9401 43.2123 72.1528 45.9414 72.1528Z" fill="black"/>
<path d="M51.3906 95.8737C54.1198 95.8737 56.332 93.6609 56.332 90.9323C56.332 88.2036 54.1198 85.9908 51.3906 85.9908H27.6719C24.9427 85.9908 22.7305 88.2036 22.7305 90.9323C22.7305 93.6609 24.9427 95.8737 27.6719 95.8737H51.3906Z" fill="black"/>
<path d="M188.65 190C188.65 194.142 190.889 197.5 193.65 197.5C196.411 197.5 198.65 194.142 198.65 190L198.65 154C198.65 149.858 196.411 146.5 193.65 146.5C190.889 146.5 188.65 149.858 188.65 154L188.65 190Z" fill="black"/>
</svg>
